<?xml version="1.0" standalone="no"?>
<!DOCTYPE svg PUBLIC "-//W3C//DTD SVG 20010904//EN"
 "http://www.w3.org/TR/2001/REC-SVG-20010904/DTD/svg10.dtd">
<svg version="1.0" xmlns="http://www.w3.org/2000/svg"
 width="246.000000pt" height="246.000000pt" viewBox="0 0 246.000000 246.000000"
 preserveAspectRatio="xMidYMid meet">

<g transform="translate(0.000000,246.000000) scale(0.100000,-0.100000)"
fill="#000000" stroke="none">
<path d="M937 2175 c-75 -29 -102 -35 -168 -35 -238 0 -528 -189 -626 -408
-56 -125 -90 -331 -63 -381 7 -13 3 -35 -11 -77 -30 -84 -23 -227 14 -305 38
-80 62 -102 147 -139 14 -6 41 -32 60 -58 116 -155 302 -253 555 -293 181 -28
292 -22 396 21 131 55 193 65 223 38 21 -20 64 -22 156 -9 46 7 57 5 67 -8 6
-9 27 -34 47 -56 19 -22 36 -43 36 -47 0 -4 42 -28 94 -53 103 -51 193 -68
235 -46 18 10 27 10 44 -2 77 -50 149 -42 216 25 78 79 81 185 10 294 -37 58
-64 84 -84 84 -4 0 5 -14 19 -31 28 -33 32 -50 16 -80 -15 -27 -71 -25 -145 6
-33 13 -79 25 -102 25 -42 0 -42 1 -37 30 4 16 4 37 0 45 -5 13 -12 11 -45
-15 -24 -20 -55 -34 -81 -37 l-42 -6 37 74 c78 153 122 378 118 594 -3 140
-24 243 -73 357 -55 126 -90 176 -179 260 -124 116 -290 198 -507 248 -131 31
-220 27 -327 -15z m-393 -637 c14 -46 37 -100 52 -121 14 -21 24 -40 22 -42
-2 -2 -35 -5 -73 -6 l-70 -2 1 52 c2 43 32 201 39 201 2 0 14 -37 29 -82z
m-125 -149 l22 -29 -32 -27 c-101 -85 -85 -244 31 -307 65 -35 182 -37 241 -4
80 45 104 174 46 255 -15 20 -25 38 -24 39 1 1 29 -4 62 -12 77 -18 75 -18 75
9 l0 22 19 -24 c14 -18 39 -28 106 -42 48 -10 91 -16 96 -13 5 3 9 24 9 46 l0
41 29 -39 29 -39 -28 -30 c-39 -43 -49 -66 -56 -133 -8 -71 6 -120 49 -168 50
-57 99 -77 202 -81 79 -3 95 -1 130 19 54 31 90 102 89 176 -1 60 7 58 29 -8
24 -72 63 -143 96 -174 26 -25 35 -28 66 -22 46 9 65 -6 65 -49 0 -46 -38 -98
-83 -112 -31 -11 -43 -10 -71 4 l-34 16 -43 -44 c-56 -56 -90 -74 -214 -116
-134 -45 -262 -67 -350 -60 -188 15 -365 65 -489 139 -66 39 -183 144 -172
155 2 2 22 -6 44 -19 23 -12 43 -20 46 -17 8 7 -22 89 -39 105 -46 46 -72 278
-49 444 15 114 33 210 41 223 3 5 13 -14 23 -43 10 -28 27 -65 39 -81z m229
-56 c57 -43 86 -90 89 -151 8 -110 -50 -167 -169 -166 -125 2 -207 70 -208
172 0 51 30 115 66 139 56 37 176 40 222 6z m698 -70 c17 -17 16 -18 -18 -21
-25 -2 -39 -10 -48 -27 -16 -31 -5 -92 20 -105 28 -15 76 -12 94 6 23 22 20
74 -6 101 -35 37 -11 40 28 2 68 -65 92 -148 67 -233 -26 -88 -66 -116 -170
-116 -82 0 -124 11 -174 46 -97 67 -106 240 -16 322 42 39 192 55 223 25z
m431 -208 c10 -30 8 -36 -11 -48 -26 -17 -105 -37 -145 -37 -20 0 -34 7 -41
19 -14 27 -13 28 15 35 13 3 34 10 47 15 13 5 28 10 33 12 6 2 26 11 45 21 46
23 45 23 57 -17z m-1523 -214 c-7 -8 -44 32 -44 48 0 11 8 6 24 -14 13 -16 22
-32 20 -34z"/>
<path d="M730 853 c1 -39 58 -83 108 -83 44 0 99 26 105 51 7 25 -1 24 -22 -2
-26 -33 -107 -38 -143 -9 -16 12 -28 28 -28 35 0 8 -4 17 -10 20 -5 3 -10 -2
-10 -12z"/>
<path d="M437 1286 c-27 -21 -19 -76 14 -95 57 -32 120 47 74 93 -20 19 -63
20 -88 2z"/>
</g>
</svg>
